# Blender v2.90.1 OBJ File: 'untitled.blend'
# www.blender.org
mtllib showcase_lowpoly.mtl
o Cube
v 0.500000 1.600000 -0.500000
v 0.500000 0.000000 -0.500000
v 0.500000 1.600000 0.500000
v 0.500000 0.000000 0.500000
v -0.500000 1.600000 -0.500000
v -0.500000 0.000000 -0.500000
v -0.500000 1.600000 0.500000
v -0.500000 0.000000 0.500000
vt 0.625000 0.500000
vt 0.875000 0.500000
vt 0.875000 0.750000
vt 0.625000 0.750000
vt 0.375000 0.750000
vt 0.625000 1.000000
vt 0.375000 1.000000
vt 0.375000 0.000000
vt 0.625000 0.000000
vt 0.625000 0.250000
vt 0.375000 0.250000
vt 0.125000 0.500000
vt 0.375000 0.500000
vt 0.125000 0.750000
vn 0.0000 1.0000 0.0000
vn 0.0000 0.0000 1.0000
vn -1.0000 0.0000 0.0000
vn 0.0000 -1.0000 0.0000
vn 1.0000 0.0000 0.0000
vn 0.0000 0.0000 -1.0000
usemtl Material
s off
f 1/1/1 5/2/1 7/3/1 3/4/1
f 4/5/2 3/4/2 7/6/2 8/7/2
f 8/8/3 7/9/3 5/10/3 6/11/3
f 6/12/4 2/13/4 4/5/4 8/14/4
f 2/13/5 1/1/5 3/4/5 4/5/5
f 6/11/6 5/10/6 1/1/6 2/13/6
o 10315_soup_plate_v2_max2011_iteration-2
v 0.394430 1.965440 -0.000090
v 0.378290 1.877170 -0.000015
v 0.327785 1.879445 -0.189290
v 0.342525 1.977685 -0.197995
v 0.189330 1.881660 -0.327950
v 0.198190 1.989605 -0.343430
v 0.000000 1.882645 -0.378705
v 0.000000 1.994925 -0.396650
v -0.189300 1.882250 -0.327935
v -0.198025 1.992795 -0.343335
v -0.341630 1.977830 -0.197570
v -0.327620 1.879470 -0.189215
v -0.393465 1.964860 -0.000045
v -0.378115 1.877060 -0.000010
v -0.327550 1.877435 0.189165
v -0.341260 1.966860 0.197315
v -0.189255 1.881120 0.327875
v -0.197795 1.986715 0.343020
v -0.000005 1.882390 0.378675
v -0.000015 1.993555 0.396500
v 0.197810 1.985010 0.342945
v 0.189260 1.880805 0.327865
v 0.341800 1.966865 0.197515
v 0.327650 1.877440 0.189205
v 0.314075 1.767695 0.000000
v 0.272000 1.767695 -0.157035
v 0.157040 1.767695 -0.271995
v 0.000000 1.767695 -0.314075
v -0.157040 1.767695 -0.271995
v -0.272000 1.767695 -0.157035
v -0.314075 1.767695 0.000000
v -0.272000 1.767695 0.157035
v -0.157040 1.767695 0.271995
v 0.000000 1.767695 0.314075
v 0.157035 1.767695 0.272000
v 0.271995 1.767695 0.157040
v 0.244660 1.695370 0.000000
v 0.211885 1.695370 -0.122330
v 0.122335 1.695370 -0.211885
v 0.000000 1.695370 -0.244660
v -0.122335 1.695370 -0.211885
v -0.211885 1.695370 -0.122330
v -0.244660 1.695370 0.000000
v -0.211885 1.695370 0.122330
v -0.122335 1.695370 0.211885
v 0.000000 1.695370 0.244660
v 0.122330 1.695370 0.211885
v 0.211885 1.695370 0.122335
v 0.173245 1.619890 -0.100025
v 0.194580 1.670020 -0.112340
v 0.224680 1.670020 0.000000
v 0.200050 1.619890 0.000000
v 0.100025 1.619890 -0.173245
v 0.112340 1.670020 -0.194580
v 0.000000 1.619890 -0.200050
v 0.000000 1.670020 -0.224680
v -0.100025 1.619890 -0.173245
v -0.112340 1.670020 -0.194580
v -0.173245 1.619890 -0.100025
v -0.194580 1.670020 -0.112340
v -0.200050 1.619890 0.000000
v -0.224680 1.670020 0.000000
v -0.173245 1.619890 0.100025
v -0.194580 1.670020 0.112340
v -0.100025 1.619890 0.173245
v -0.112340 1.670020 0.194580
v 0.000000 1.619890 0.200050
v 0.000000 1.670020 0.224680
v 0.100025 1.619890 0.173245
v 0.112340 1.670020 0.194580
v 0.173245 1.619890 0.100025
v 0.194580 1.670020 0.112340
v 0.144895 1.606310 -0.083655
v 0.167310 1.606310 0.000000
v 0.000000 1.605760 0.000000
v 0.083655 1.606310 -0.144895
v 0.000000 1.606310 -0.167310
v -0.083655 1.606310 -0.144895
v -0.144895 1.606310 -0.083655
v -0.167310 1.606310 0.000000
v -0.144895 1.606310 0.083655
v -0.083655 1.606310 0.144895
v 0.000000 1.606310 0.167310
v 0.083655 1.606310 0.144895
v 0.144895 1.606310 0.083655
v 0.339780 1.999565 -0.196450
v 0.334090 1.999610 -0.193160
v 0.384515 1.985595 -0.000105
v 0.391055 1.985265 -0.000105
v 0.196680 2.013540 -0.340830
v 0.193385 2.013370 -0.335110
v 0.000005 2.019820 -0.393660
v 0.000010 2.019615 -0.387050
v -0.196470 2.017355 -0.340715
v -0.193170 2.017230 -0.334995
v -0.338685 1.999920 -0.195935
v -0.333005 2.000220 -0.192655
v -0.389880 1.984765 -0.000050
v -0.383340 1.985350 -0.000055
v -0.338265 1.986995 0.195640
v -0.332595 1.987395 0.192355
v -0.196200 2.010215 0.340345
v -0.192905 2.010185 0.334620
v -0.000015 2.018225 0.393480
v -0.000010 2.018060 0.386860
v 0.196230 2.008205 0.340255
v 0.192945 2.008185 0.334540
v 0.338925 1.986895 0.195885
v 0.333260 1.987145 0.192600
v 0.314800 1.880025 -0.182010
v 0.362310 1.877875 -0.000110
v 0.378600 1.966410 -0.000110
v 0.328970 1.978065 -0.190210
v 0.182230 1.882150 -0.315770
v 0.190435 1.989555 -0.330000
v 0.000025 1.883120 -0.364705
v 0.000015 1.994805 -0.381150
v -0.190215 1.992845 -0.329890
v -0.181995 1.882760 -0.315660
v -0.327890 1.978725 -0.189710
v -0.313745 1.880155 -0.181535
v -0.377435 1.966345 -0.000060
v -0.361170 1.877865 -0.000065
v -0.327470 1.967965 0.189395
v -0.313355 1.878165 0.181230
v -0.181745 1.881670 0.315285
v -0.189950 1.986950 0.329510
v 0.000005 1.882885 0.364510
v -0.000005 1.993520 0.380960
v 0.189995 1.985265 0.329430
v 0.181810 1.881360 0.315205
v 0.328130 1.967670 0.189640
v 0.314015 1.878105 0.181460
v 0.261600 1.768775 -0.151255
v 0.301080 1.768775 -0.000120
v 0.151450 1.768775 -0.262385
v 0.000065 1.768775 -0.303045
v -0.151170 1.768775 -0.262295
v -0.260635 1.768775 -0.150860
v -0.300040 1.768775 -0.000080
v -0.260315 1.768775 0.150550
v -0.150960 1.768775 0.261925
v 0.000050 1.768775 0.302820
v 0.151105 1.768775 0.261855
v 0.260950 1.768775 0.150740
v 0.199805 1.695320 -0.115530
v 0.229950 1.695320 -0.000135
v 0.115700 1.695315 -0.200380
v 0.000110 1.695315 -0.231425
v -0.115360 1.695315 -0.200310
v -0.198940 1.695320 -0.115230
v -0.229035 1.695325 -0.000105
v -0.198700 1.695320 0.114910
v -0.115200 1.695315 0.199945
v 0.000100 1.695315 0.231170
v 0.115440 1.695315 0.199895
v 0.199310 1.695320 0.115050
v 0.162655 1.681895 -0.094060
v 0.187190 1.681895 -0.000145
v 0.094210 1.681895 -0.163115
v 0.000140 1.681895 -0.188380
v -0.093830 1.681895 -0.163055
v -0.161855 1.681895 -0.093815
v -0.186340 1.681900 -0.000120
v -0.161655 1.681895 0.093485
v -0.093700 1.681895 0.162690
v 0.000130 1.681895 0.188105
v 0.093995 1.681895 0.162650
v 0.162255 1.681895 0.093600
v 0.000265 1.681675 -0.000180
vt 0.123900 0.270300
vt 0.122600 0.239700
vt 0.186800 0.240700
vt 0.187300 0.269000
vt 0.750900 0.272500
vt 0.061900 0.273100
vt 0.064000 0.316000
vt 0.749900 0.319000
vt 0.566200 0.277800
vt 0.566800 0.251000
vt 0.626800 0.247900
vt 0.626900 0.277500
vt 0.685900 0.235000
vt 0.000900 0.235700
vt 0.000700 0.237900
vt 0.686400 0.242600
vt 0.687800 0.275800
vt 0.000000 0.275900
vt 0.004300 0.319600
vt 0.687700 0.319600
vt 0.505000 0.276200
vt 0.506000 0.248400
vt 0.626700 0.241000
vt 0.626300 0.320100
vt 0.442800 0.272900
vt 0.444200 0.239900
vt 0.565000 0.320000
vt 0.503200 0.319000
vt 0.440700 0.317500
vt 0.379700 0.270300
vt 0.381100 0.235200
vt 0.566900 0.244600
vt 0.315800 0.268800
vt 0.316800 0.235500
vt 0.506300 0.241900
vt 0.251500 0.268700
vt 0.251800 0.239800
vt 0.377700 0.315800
vt 0.686800 0.358700
vt 0.008000 0.362100
vt 0.005200 0.364000
vt 0.687200 0.373900
vt 0.316900 0.227700
vt 0.381400 0.227000
vt 0.314200 0.314000
vt 0.250600 0.312900
vt 0.187300 0.312700
vt 0.125000 0.313800
vt 0.251800 0.232900
vt 0.125100 0.352800
vt 0.186600 0.352600
vt 0.186700 0.233900
vt 0.563500 0.359400
vt 0.625300 0.359300
vt 0.501300 0.358700
vt 0.438600 0.357600
vt 0.375500 0.356100
vt 0.312300 0.354500
vt 0.249200 0.353200
vt 0.444600 0.232200
vt 0.186400 0.367900
vt 0.125200 0.367700
vt 0.035100 0.866300
vt 0.070500 0.900200
vt 0.065600 0.402700
vt 0.124800 0.402700
vt 0.746400 0.365100
vt 0.065100 0.353800
vt 0.065200 0.368300
vt 0.750600 0.366400
vt 0.625100 0.374600
vt 0.021300 0.819300
vt 0.116000 0.817100
vt 0.563000 0.374700
vt 0.500700 0.374100
vt 0.438000 0.373000
vt 0.374900 0.371600
vt 0.311700 0.370000
vt 0.248700 0.368700
vt 0.185600 0.403700
vt 0.014300 0.761400
vt 0.000000 0.819700
vt 0.060300 0.918700
vt 0.118800 0.933100
vt 0.016900 0.877300
vt 0.118300 0.933100
vt 0.176100 0.916200
vt 0.186700 0.231700
vt 0.251700 0.230600
vt 0.231900 0.814500
vt 0.215000 0.756900
vt 0.217600 0.872800
vt 0.118500 0.929300
vt 0.750900 0.409600
vt 0.171700 0.715500
vt 0.118400 0.929300
vt 0.165100 0.898000
vt 0.687500 0.410500
vt 0.007800 0.404100
vt 0.113400 0.701200
vt 0.199000 0.862600
vt 0.625000 0.411000
vt 0.055800 0.718100
vt 0.210600 0.815000
vt 0.562600 0.411100
vt 0.196800 0.768000
vt 0.499900 0.410700
vt 0.161400 0.734100
vt 0.437000 0.409800
vt 0.113800 0.722500
vt 0.373700 0.408500
vt 0.060100 0.230800
vt 0.060100 0.233000
vt 0.744500 0.230900
vt 0.743800 0.228900
vt 0.066800 0.736300
vt 0.310400 0.406800
vt 0.122300 0.232500
vt 0.033000 0.771700
vt 0.247600 0.405100
vt 0.060400 0.240500
vt 0.745100 0.233000
vt 0.001300 0.233600
vt 0.685700 0.232900
vt 0.186700 0.229800
vt 0.250900 0.128300
vt 0.331600 0.126900
vt 0.251400 0.229300
vt 0.831000 0.017300
vt 0.828500 0.075100
vt 0.744300 0.073300
vt 0.747100 0.015800
vt 0.122300 0.230200
vt 0.172000 0.180700
vt 0.252200 0.170100
vt 0.090100 0.191800
vt 1.000000 0.201300
vt 0.250300 0.070300
vt 0.169500 0.132400
vt 0.168200 0.073000
vt 0.566900 0.242500
vt 0.506500 0.239700
vt 0.626600 0.238900
vt 0.626300 0.237200
vt 0.826300 0.136700
vt 0.912400 0.139800
vt 0.685600 0.230300
vt 0.444800 0.230100
vt 0.381400 0.224800
vt 0.316800 0.225500
vt 0.059500 0.228300
vt 0.086900 0.137400
vt 0.122200 0.227600
vt 0.331700 0.168500
vt 0.743300 0.226800
vt 0.999800 0.141000
vt 0.085100 0.076300
vt 0.910900 0.199400
vt 0.006300 0.200000
vt 0.002600 0.143300
vt 0.001700 0.231400
vt 0.660900 0.071800
vt 0.663700 0.014800
vt 0.998900 0.075400
vt 0.913700 0.076300
vt 0.001600 0.080800
vt 0.664300 0.001600
vt 0.125300 0.556100
vt 0.747600 0.002600
vt 0.445500 0.226800
vt 0.576000 0.131000
vt 0.658600 0.131100
vt 0.507100 0.239100
vt 0.581100 0.001100
vt 0.381700 0.221700
vt 0.494000 0.130100
vt 0.741900 0.133100
vt 0.316600 0.222100
vt 0.412500 0.128400
vt 0.578100 0.070800
vt 0.415300 0.013000
vt 0.413600 0.069100
vt 0.332000 0.069100
vt 0.333100 0.013100
vt 0.250700 0.572100
vt 0.241200 0.507600
vt 0.580600 0.014100
vt 0.495600 0.069800
vt 0.084500 0.019300
vt 0.999800 0.009800
vt 0.024800 0.479600
vt 0.000000 0.540100
vt 0.168100 0.016400
vt 0.250800 0.014100
vt 0.009100 0.604800
vt 0.000000 0.012300
vt 0.915400 0.018700
vt 0.076600 0.439600
vt 0.497800 0.013500
vt 0.201200 0.456600
vt 0.141300 0.431500
vt 0.415600 0.000000
vt 0.498200 0.000400
vt 0.226100 0.632700
vt 0.174300 0.672500
vt 0.831500 0.004000
vt 0.915900 0.005500
vt 0.000700 0.009300
vt 0.168100 0.003200
vt 0.250900 0.001000
vt 0.333300 0.000000
vt 0.049500 0.656000
vt 0.566900 0.241300
vt 0.824400 0.187600
vt 0.740100 0.177000
vt 0.657300 0.173900
vt 0.574700 0.184700
vt 0.109500 0.680900
vt 0.492800 0.185300
vt 0.411800 0.180200
vt 0.999000 0.006800
vt 0.084500 0.006000
vn 0.8148 -0.3341 -0.4738
vn 0.8681 -0.0193 -0.4960
vn 0.9998 -0.0183 0.0017
vn 0.9399 -0.3415 -0.0011
vn -0.0015 -0.3212 -0.9470
vn 0.4710 -0.3237 -0.8206
vn 0.4033 -0.5881 -0.7010
vn -0.0003 -0.5867 -0.8098
vn -0.9412 -0.3379 -0.0017
vn -0.9999 -0.0110 0.0011
vn -0.8723 -0.0071 -0.4889
vn -0.8156 -0.3274 -0.4771
vn -0.3808 0.7116 -0.5904
vn 0.0048 0.7111 -0.7031
vn -0.0003 -0.0117 -0.9999
vn -0.4992 -0.0120 -0.8664
vn -0.4731 -0.3218 -0.8202
vn -0.4037 -0.5874 -0.7014
vn -0.8141 -0.3377 0.4725
vn -0.8685 -0.0156 0.4955
vn -0.6490 0.6926 -0.3148
vn -0.6981 -0.5903 -0.4052
vn -0.4697 -0.3274 0.8199
vn -0.5046 -0.0159 0.8632
vn -0.8052 -0.5930 -0.0008
vn -0.6970 -0.5925 0.4040
vn -0.4024 -0.5891 0.7007
vn -0.0003 -0.3233 0.9463
vn 0.0003 -0.0188 0.9998
vn -0.7317 0.6814 0.0179
vn 0.4691 -0.3289 0.8196
vn 0.5037 -0.0176 0.8637
vn -0.6542 0.6801 0.3308
vn 0.8131 -0.3403 0.4724
vn 0.8673 -0.0200 0.4974
vn -0.0001 -0.5875 0.8092
vn -0.3760 -0.6605 -0.6499
vn 0.0000 -0.6601 -0.7511
vn 0.0002 -0.5418 -0.8405
vn -0.4216 -0.5410 -0.7277
vn 0.3925 0.7089 0.5859
vn 0.0029 0.7145 0.6996
vn 0.4022 -0.5895 0.7005
vn 0.6967 -0.5928 0.4039
vn 0.8049 -0.5934 -0.0008
vn 0.6978 -0.5910 -0.4048
vn 0.6458 0.6868 0.3336
vn 0.6499 -0.6610 -0.3752
vn 0.7506 -0.6608 0.0000
vn 0.7235 0.6900 0.0210
vn -0.7506 -0.6608 -0.0000
vn -0.6500 -0.6605 -0.3759
vn -0.6499 -0.6610 0.3752
vn -0.3751 -0.6611 0.6498
vn -0.0000 -0.6609 0.7505
vn 0.3752 -0.6609 0.6499
vn 0.6498 -0.6611 0.3751
vn -0.3959 0.7097 0.5828
vn 0.8411 -0.5408 0.0010
vn 0.7277 -0.5410 -0.4216
vn 0.1996 -0.9729 -0.1164
vn 0.1170 -0.9737 -0.1952
vn 0.3600 -0.7017 -0.6149
vn 0.6148 -0.7042 -0.3550
vn 0.3757 -0.6600 -0.6506
vn 0.4203 -0.5421 -0.7277
vn -0.7290 -0.5410 -0.4194
vn 0.2252 -0.9743 -0.0017
vn 0.0001 -1.0000 0.0004
vn -0.8410 -0.5410 0.0010
vn -0.7277 -0.5410 0.4216
vn -0.4194 -0.5410 0.7290
vn 0.0010 -0.5410 0.8410
vn 0.4216 -0.5410 0.7277
vn 0.7290 -0.5410 0.4194
vn 0.7131 -0.7010 -0.0044
vn 0.6192 -0.7017 0.3525
vn 0.0000 -0.6980 -0.7161
vn -0.3581 -0.6980 -0.6202
vn -0.5092 0.8603 0.0245
vn -0.4218 0.8562 -0.2984
vn -0.7125 -0.7017 0.0043
vn -0.6202 -0.6980 0.3581
vn -0.6202 -0.6980 -0.3581
vn 0.0037 -0.9738 -0.2276
vn -0.3581 -0.6980 0.6202
vn -0.1106 -0.9737 -0.1990
vn -0.0000 -0.6980 0.7161
vn -0.1952 -0.9737 -0.1170
vn 0.3581 -0.6980 0.6202
vn -0.2276 -0.9738 -0.0037
vn -0.1990 -0.9737 0.1106
vn -0.1170 -0.9737 0.1952
vn -0.0037 -0.9738 0.2276
vn -0.2312 0.8332 0.5023
vn 0.3779 0.7101 -0.5941
vn 0.0076 0.8267 0.5625
vn 0.1106 -0.9737 0.1990
vn 0.6390 0.7011 -0.3164
vn 0.1952 -0.9737 0.1170
vn 0.5024 -0.0107 -0.8646
vn 0.2351 0.8345 0.4983
vn -0.9725 0.2326 0.0082
vn -0.9444 0.3287 0.0029
vn -0.8167 0.3273 -0.4752
vn -0.8379 0.2281 -0.4959
vn 0.4815 0.8333 0.2716
vn 0.7051 0.5840 0.4023
vn 0.8102 0.5861 -0.0000
vn 0.5545 0.8322 -0.0005
vn -0.4295 0.8462 0.3155
vn -0.8397 0.2166 0.4979
vn -0.4813 0.1999 0.8534
vn 0.0059 0.1927 0.9812
vn -0.8098 0.5868 -0.0010
vn -0.8195 0.3207 0.4749
vn -0.7033 0.5855 0.4032
vn 0.4919 0.8702 0.0259
vn 0.4121 0.8590 -0.3039
vn 0.4125 0.8512 0.3244
vn 0.8434 0.2116 0.4939
vn 0.8212 0.3210 0.4718
vn 0.4764 0.3100 0.8228
vn 0.4839 0.1978 0.8525
vn 0.2092 0.8400 -0.5007
vn -0.0010 0.8363 -0.5483
vn -0.2085 0.8386 -0.5033
vn -0.4742 0.3126 0.8230
vn 0.0010 0.3082 0.9513
vn -0.4068 0.5833 0.7031
vn 0.7035 0.5862 -0.4019
vn 0.4817 0.8326 -0.2734
vn 0.0006 0.5818 0.8133
vn 0.4086 0.5824 0.7027
vn 0.1526 0.9844 -0.0878
vn 0.0000 1.0000 -0.0000
vn 0.1773 0.9841 -0.0005
vn 0.4834 0.2038 -0.8513
vn 0.4749 0.3160 -0.8214
vn 0.8210 0.3265 -0.4683
vn 0.8432 0.2283 -0.4868
vn 0.0879 0.9844 -0.1522
vn 0.0007 0.1941 -0.9810
vn 0.0001 0.3105 -0.9506
vn 0.9455 0.3256 0.0010
vn -0.4819 0.2050 -0.8519
vn -0.4735 0.3170 -0.8218
vn 0.4080 0.5844 -0.7014
vn -0.2792 0.8339 -0.4761
vn -0.4071 0.5842 -0.7021
vn -0.7024 0.5865 -0.4033
vn -0.4807 0.8326 -0.2751
vn 0.2799 0.8339 -0.4757
vn -0.0000 0.5831 -0.8124
vn -0.2770 0.8346 0.4761
vn -0.0007 0.8343 0.5513
vn 0.0003 0.9847 0.1743
vn -0.0893 0.9845 0.1512
vn -0.4809 0.8329 0.2738
vn -0.5541 0.8325 -0.0013
vn -0.1536 0.9844 0.0860
vn 0.2789 0.8333 0.4773
vn 0.0885 0.9846 0.1505
vn -0.0000 0.8337 -0.5522
vn 0.1527 0.9844 0.0876
vn -0.0897 0.9844 -0.1511
vn -0.0004 0.9843 -0.1767
vn -0.1764 0.9843 -0.0017
vn -0.1534 0.9844 -0.0864
vn 0.9736 0.2283 0.0046
usemtl 10315_soup_plate
s 1
f 11/15/7 12/16/8 9/17/9 10/18/10
f 15/19/11 13/20/12 35/21/13 36/22/14
f 22/23/15 21/24/16 19/25/17 20/26/18
f 102/27/19 100/28/20 16/29/21 18/30/22
f 17/31/23 15/32/11 36/33/14 37/34/24
f 23/35/25 24/36/26 21/24/16 22/23/15
f 18/30/22 19/25/17 104/37/27 102/27/19
f 20/26/18 17/31/23 37/34/24 38/38/28
f 25/39/29 26/40/30 24/36/26 23/35/25
f 22/23/15 20/26/18 38/38/28 39/41/31
f 25/39/29 23/35/25 40/42/32 41/43/33
f 27/44/34 28/45/35 26/40/30 25/39/29
f 19/25/17 21/24/16 106/46/36 104/37/27
f 23/35/25 22/23/15 39/41/31 40/42/32
f 30/47/37 29/48/38 28/45/35 27/44/34
f 108/49/39 106/46/36 21/24/16 24/36/26
f 32/50/40 31/51/41 29/48/38 30/47/37
f 27/44/34 25/39/29 41/43/33 42/52/42
f 49/53/43 48/54/44 64/55/45 66/56/46
f 28/45/35 29/48/38 114/57/47 112/58/48
f 30/47/37 27/44/34 42/52/42 43/59/49
f 10/18/10 32/50/40 44/60/50 33/61/51
f 32/50/40 30/47/37 43/59/49 44/60/50
f 11/15/7 10/18/10 33/61/51 34/62/52
f 29/48/38 31/51/41 116/63/53 114/57/47
f 46/64/54 34/62/52 33/61/51 45/65/55
f 49/53/43 37/34/24 36/33/14 48/54/44
f 31/51/41 9/17/9 97/66/56 116/63/53
f 51/67/57 39/41/31 38/38/28 50/68/58
f 52/69/59 40/42/32 39/41/31 51/67/57
f 53/70/60 41/43/33 40/42/32 52/69/59
f 54/71/61 42/52/42 41/43/33 53/70/60
f 55/72/62 43/59/49 42/52/42 54/71/61
f 56/73/63 44/60/50 43/59/49 55/72/62
f 110/74/64 108/49/39 24/36/26 26/40/30
f 45/65/55 33/61/51 44/60/50 56/73/63
f 46/64/54 45/65/55 59/75/65 58/76/66
f 81/77/67 84/78/68 61/79/69 57/80/70
f 48/81/44 47/82/71 62/83/72 64/84/45
f 50/68/58 49/53/43 66/56/46 68/85/73
f 82/86/74 83/87/75 81/77/67
f 51/67/57 50/68/58 68/85/73 70/88/76
f 52/69/59 51/67/57 70/88/76 72/89/77
f 53/70/60 52/69/59 72/89/77 74/90/78
f 54/71/61 53/70/60 74/90/78 76/91/79
f 55/72/62 54/71/61 76/91/79 78/92/80
f 56/73/63 55/72/62 78/92/80 80/93/81
f 45/65/55 56/73/63 80/93/81 59/75/65
f 82/86/74 81/77/67 57/80/70 60/94/82
f 79/95/83 60/96/82 59/75/65 80/93/81
f 62/83/72 61/97/69 63/98/84 64/84/45
f 58/76/66 57/99/70 61/97/69 62/83/72
f 64/55/45 63/100/84 65/101/85 66/56/46
f 116/63/53 97/66/56 96/102/86 117/103/87
f 13/20/12 11/15/7 34/62/52 35/21/13
f 47/82/71 35/21/13 34/62/52 46/64/54
f 59/75/65 60/96/82 57/99/70 58/76/66
f 70/88/76 69/104/88 71/105/89 72/89/77
f 66/56/46 65/101/85 67/106/90 68/85/73
f 84/78/68 85/107/91 63/108/84 61/79/69
f 72/89/77 71/105/89 73/109/92 74/90/78
f 85/110/91 86/111/93 65/112/85 63/113/84
f 74/90/78 73/109/92 75/114/94 76/91/79
f 86/111/93 87/115/95 67/116/90 65/112/85
f 76/91/79 75/114/94 77/117/96 78/92/80
f 87/115/95 88/118/97 69/119/88 67/116/90
f 78/92/80 77/117/96 79/95/83 80/93/81
f 88/118/97 89/120/98 71/121/89 69/119/88
f 89/120/98 90/122/99 73/123/92 71/121/89
f 90/122/99 91/124/100 75/125/94 73/123/92
f 99/126/101 98/127/102 100/128/20 101/129/103
f 91/124/100 92/130/104 77/131/96 75/125/94
f 94/132/105 97/66/56 9/17/9 12/16/8
f 92/130/104 93/133/106 79/134/83 77/131/96
f 93/133/106 82/86/74 60/94/82 79/134/83
f 83/87/75 84/78/68 81/77/67
f 100/128/20 98/127/102 14/135/107 16/136/21
f 82/86/74 93/133/106 83/87/75
f 83/87/75 85/107/91 84/78/68
f 83/87/75 86/111/93 85/110/91
f 83/87/75 87/115/95 86/111/93
f 83/87/75 88/118/97 87/115/95
f 83/87/75 89/120/98 88/118/97
f 83/87/75 90/122/99 89/120/98
f 83/87/75 91/124/100 90/122/99
f 83/87/75 92/130/104 91/124/100
f 101/137/103 100/28/20 102/27/19 103/138/108
f 83/87/75 93/133/106 92/130/104
f 120/139/109 119/140/110 141/141/111 140/142/112
f 159/143/113 147/144/114 148/145/115 160/146/116
f 96/102/86 95/147/117 121/148/118 120/149/109
f 95/147/117 99/126/101 123/150/119 121/148/118
f 99/126/101 101/129/103 125/151/120 123/150/119
f 143/152/121 119/140/110 118/153/122 142/154/123
f 96/102/86 97/66/56 94/132/105 95/147/117
f 107/155/124 106/46/36 108/49/39 109/156/125
f 103/138/108 102/27/19 104/37/27 105/157/126
f 128/158/127 129/159/128 127/160/129 126/161/130
f 109/156/125 108/49/39 110/74/64 111/162/131
f 113/163/132 112/58/48 114/57/47 115/164/133
f 115/164/133 114/57/47 116/63/53 117/103/87
f 123/165/119 122/166/134 118/153/122 121/167/118
f 117/103/87 96/102/86 120/149/109 140/168/112
f 125/169/120 124/170/135 122/166/134 123/165/119
f 118/153/122 122/166/134 144/171/136 142/154/123
f 101/137/103 103/138/108 126/172/130 125/173/120
f 126/161/130 127/160/129 124/174/135 125/175/120
f 120/139/109 121/167/118 118/153/122 119/140/110
f 160/146/116 148/145/115 149/176/137 161/177/138
f 122/166/134 124/170/135 145/178/139 144/171/136
f 147/144/114 146/179/140 127/160/129 129/159/128
f 146/179/140 145/180/139 124/174/135 127/160/129
f 173/181/141 178/182/142 172/183/143
f 135/184/144 134/185/145 133/186/146 132/187/147
f 174/188/148 178/182/142 173/181/141
f 137/189/149 136/190/150 134/185/145 135/184/144
f 149/176/137 148/145/115 131/191/151 133/186/146
f 138/192/152 139/193/153 136/190/150 137/189/149
f 133/186/146 134/185/145 150/194/154 149/176/137
f 164/195/155 152/196/156 153/197/157 165/198/158
f 140/142/112 141/141/111 139/193/153 138/192/152
f 174/199/148 173/200/141 161/177/138 162/201/159
f 134/185/145 136/190/150 151/202/160 150/194/154
f 156/203/161 157/204/162 169/205/163 168/206/164
f 153/197/157 152/196/156 139/193/153 141/141/111
f 152/196/156 151/202/160 136/190/150 139/193/153
f 143/152/121 142/154/123 154/207/165 155/208/166
f 154/207/165 142/154/123 144/171/136 156/203/161
f 154/207/165 156/203/161 168/206/164 166/209/167
f 157/210/162 145/180/139 146/179/140 158/211/168
f 157/210/162 158/211/168 170/212/169 169/205/163
f 162/201/159 161/177/138 149/176/137 150/194/154
f 162/201/159 150/194/154 151/202/160 163/213/170
f 159/143/113 160/146/116 172/214/143 171/215/171
f 176/216/172 178/182/142 175/217/173
f 165/198/158 153/197/157 143/152/121 155/208/166
f 160/146/116 161/177/138 173/200/141 172/214/143
f 163/213/170 151/202/160 152/196/156 164/195/155
f 162/201/159 163/213/170 175/218/173 174/199/148
f 163/213/170 164/195/155 176/219/172 175/218/173
f 171/220/171 178/182/142 170/221/169
f 156/203/161 144/171/136 145/178/139 157/204/162
f 158/211/168 159/143/113 171/215/171 170/212/169
f 170/221/169 178/182/142 169/222/163
f 172/183/143 178/182/142 171/220/171
f 166/223/167 178/182/142 167/224/174
f 175/217/173 178/182/142 174/188/148
f 178/182/142 176/216/172 177/225/175
f 47/82/71 46/64/54 58/76/66 62/83/72
f 98/127/102 94/132/105 12/16/8 14/135/107
f 111/162/131 110/74/64 112/58/48 113/163/132
f 112/58/48 110/74/64 26/40/30 28/45/35
f 158/211/168 146/179/140 147/144/114 159/143/113
f 10/18/10 9/17/9 31/51/41 32/50/40
f 166/209/167 167/226/174 155/208/166 154/207/165
f 130/227/176 131/191/151 129/159/128 128/158/127
f 105/157/126 104/37/27 106/46/36 107/155/124
f 132/187/147 133/186/146 131/191/151 130/227/176
f 103/138/108 105/157/126 128/228/127 126/172/130
f 148/145/115 147/144/114 129/159/128 131/191/151
f 105/157/126 107/155/124 130/229/176 128/228/127
f 107/155/124 109/156/125 132/230/147 130/229/176
f 109/156/125 111/162/131 135/231/144 132/230/147
f 164/195/155 165/198/158 177/232/175 176/219/172
f 111/162/131 113/163/132 137/233/149 135/231/144
f 113/163/132 115/164/133 138/234/152 137/233/149
f 115/164/133 117/103/87 140/168/112 138/234/152
f 143/152/121 153/197/157 141/141/111 119/140/110
f 169/235/163 178/182/142 168/236/164
f 178/182/142 177/225/175 167/224/174
f 177/232/175 165/198/158 155/208/166 167/226/174
f 168/236/164 178/182/142 166/223/167
f 15/19/11 16/136/21 14/135/107 13/20/12
f 13/20/12 14/135/107 12/16/8 11/15/7
f 95/147/117 94/132/105 98/127/102 99/126/101
f 17/31/23 18/30/22 16/29/21 15/32/11
f 48/81/44 36/22/14 35/21/13 47/82/71
f 68/85/73 67/106/90 69/104/88 70/88/76
f 20/26/18 19/25/17 18/30/22 17/31/23
f 50/68/58 38/38/28 37/34/24 49/53/43
